<?xml version="1.0" encoding="utf-8"?>
<!-- Generator: Adobe Illustrator 28.1.0, SVG Export Plug-In . SVG Version: 6.00 Build 0)  -->
<svg version="1.1" id="Layer_1" xmlns="http://www.w3.org/2000/svg" xmlns:xlink="http://www.w3.org/1999/xlink" x="0px" y="0px"
	 viewBox="0 0 128 128" style="enable-background:new 0 0 128 128;" xml:space="preserve">
<style type="text/css">
	.st0{fill:#FFFFFF;}
	.st1{fill:#CFFAFE;}
	.st2{fill:none;stroke:#F87171;stroke-width:3;stroke-linecap:square;stroke-linejoin:round;stroke-miterlimit:10;}
	.st3{fill:none;stroke:#C084FC;stroke-width:3;stroke-linecap:square;stroke-linejoin:round;stroke-miterlimit:10;}
	.st4{fill:none;stroke:#FFFFFF;stroke-width:5;stroke-linecap:square;stroke-linejoin:round;stroke-miterlimit:10;}
	.st5{fill:none;stroke:#4ADE80;stroke-width:3;stroke-linecap:square;stroke-linejoin:round;stroke-miterlimit:10;}
	.st6{fill:none;stroke:#60A5FA;stroke-width:3;stroke-linecap:square;stroke-linejoin:round;stroke-miterlimit:10;}
	.st7{fill:none;stroke:#FACC15;stroke-width:3;stroke-linecap:square;stroke-linejoin:round;stroke-miterlimit:10;}
</style>
<rect x="0" y="0" class="st0" width="128" height="128"/>
<path class="st1" d="M40,0v58.7451668c0,8.486927,3.371418,16.626255,9.3725815,22.6274147L96,128H0V0L40,0z"/>
<path class="st2" d="M128,40.0531921l-60.988945-0.0421333C58.1701813,40.0049515,51,47.1701851,51,56.011055v4.3615265
	c0,4.2434616,1.6857109,8.3131256,4.6862907,11.3137131L112,128"/>
<line class="st3" x1="128" y1="32.0638313" x2="0" y2="32"/>
<path class="st4" d="M118,128L52.6862907,62.6862907C49.6857109,59.6857109,48,55.6160469,48,51.3725815V0"/>
<path class="st5" d="M118,128L52.6862907,62.6862907C49.6857109,59.6857109,48,55.6160469,48,51.3725815V0"/>
<path class="st4" d="M51.9893608,0l0.0059128,20.0047283C51.9978828,28.8394375,59.1605644,36,67.9952698,36H128"/>
<path class="st6" d="M51.9893608,0l0.0059128,20.0047283C51.9978828,28.8394375,59.1605644,36,67.9952698,36H128"/>
<path class="st4" d="M88.0638275,1l-0.059227,85.3660812c-0.0029449,3.2473068,1.682991,7.3215103,4.6862869,10.3248062L124,128"/>
<path class="st7" d="M88.0638275,1l-0.059227,85.3660812c-0.0029449,3.2473068,1.682991,7.3215103,4.6862869,10.3248062L124,128"/>
</svg>
