<?xml version="1.0" encoding="utf-8"?>
<!-- Generator: Adobe Illustrator 28.1.0, SVG Export Plug-In . SVG Version: 6.00 Build 0)  -->
<svg version="1.1" id="Layer_1" xmlns="http://www.w3.org/2000/svg" xmlns:xlink="http://www.w3.org/1999/xlink" x="0px" y="0px"
	 viewBox="0 0 128 128" style="enable-background:new 0 0 128 128;" xml:space="preserve">
<style type="text/css">
	.st0{fill:#FFFFFF;}
	.st1{fill:none;stroke:#FCC419;stroke-width:8;stroke-miterlimit:10;}
	.st2{fill:none;stroke:#FF6B6B;stroke-width:8;stroke-miterlimit:10;}
	.st3{fill:none;stroke:#51CF66;stroke-width:8;stroke-miterlimit:10;}
	.st4{fill:none;stroke:#339AF0;stroke-width:8;stroke-miterlimit:10;}
</style>
<rect class="st0" width="128" height="128"/>
<line class="st1" x1="0" y1="32" x2="128" y2="32"/>
<path class="st2" d="M0,88h48.0000114C54.6274223,88,60,82.6274261,60,76.0000153v-0.0000305
	C60,69.3725739,54.6274223,64,48.0000114,64H35.9999886C29.3725777,64,24,58.6274223,24,52.0000114v-0.0000229
	C24,45.3725777,29.3725777,40,35.9999886,40H128"/>
<path class="st3" d="M128,88H79.9999847C73.3725739,88,68,82.6274261,68,76.0000153V59.9999886
	C68,53.3725777,73.3725739,48,79.9999847,48h12.0000305C98.6274261,48,104,53.3725777,104,59.9999886V128"/>
<line class="st4" x1="0" y1="95.9787216" x2="128" y2="96"/>
<rect x="88" y="80" class="st0" width="32" height="4"/>
</svg>
